# vtk DataFile Version 3.0
Triangulation generated with deal.II
ASCII
DATASET UNSTRUCTURED_GRID
POINTS 161 double
0 0 0
0.00625 0 0
0.0125 0 0
0.01875 0 0
0.025 0 0
0.03125 0 0
0.0375 0 0
0.04375 0 0
0.05 0 0
0.05625 0 0
0.0625 0 0
0.06875 0 0
0.075 0 0
0.08125 0 0
0.0875 0 0
0.09375 0 0
0.1 0 0
0.10625 0 0
0.1125 0 0
0.11875 0 0
0.125 0 0
0.13125 0 0
0.1375 0 0
0.14375 0 0
0.15 0 0
0.15625 0 0
0.1625 0 0
0.16875 0 0
0.175 0 0
0.18125 0 0
0.1875 0 0
0.19375 0 0
0.2 0 0
0.20625 0 0
0.2125 0 0
0.21875 0 0
0.225 0 0
0.23125 0 0
0.2375 0 0
0.24375 0 0
0.25 0 0
0.25625 0 0
0.2625 0 0
0.26875 0 0
0.275 0 0
0.28125 0 0
0.2875 0 0
0.29375 0 0
0.3 0 0
0.30625 0 0
0.3125 0 0
0.31875 0 0
0.325 0 0
0.33125 0 0
0.3375 0 0
0.34375 0 0
0.35 0 0
0.35625 0 0
0.3625 0 0
0.36875 0 0
0.375 0 0
0.38125 0 0
0.3875 0 0
0.39375 0 0
0.4 0 0
0.40625 0 0
0.4125 0 0
0.41875 0 0
0.425 0 0
0.43125 0 0
0.4375 0 0
0.44375 0 0
0.45 0 0
0.45625 0 0
0.4625 0 0
0.46875 0 0
0.475 0 0
0.48125 0 0
0.4875 0 0
0.49375 0 0
0.5 0 0
0.50625 0 0
0.5125 0 0
0.51875 0 0
0.525 0 0
0.53125 0 0
0.5375 0 0
0.54375 0 0
0.55 0 0
0.55625 0 0
0.5625 0 0
0.56875 0 0
0.575 0 0
0.58125 0 0
0.5875 0 0
0.59375 0 0
0.6 0 0
0.60625 0 0
0.6125 0 0
0.61875 0 0
0.625 0 0
0.63125 0 0
0.6375 0 0
0.64375 0 0
0.65 0 0
0.65625 0 0
0.6625 0 0
0.66875 0 0
0.675 0 0
0.68125 0 0
0.6875 0 0
0.69375 0 0
0.7 0 0
0.70625 0 0
0.7125 0 0
0.71875 0 0
0.725 0 0
0.73125 0 0
0.7375 0 0
0.74375 0 0
0.75 0 0
0.75625 0 0
0.7625 0 0
0.76875 0 0
0.775 0 0
0.78125 0 0
0.7875 0 0
0.79375 0 0
0.8 0 0
0.80625 0 0
0.8125 0 0
0.81875 0 0
0.825 0 0
0.83125 0 0
0.8375 0 0
0.84375 0 0
0.85 0 0
0.85625 0 0
0.8625 0 0
0.86875 0 0
0.875 0 0
0.88125 0 0
0.8875 0 0
0.89375 0 0
0.9 0 0
0.90625 0 0
0.9125 0 0
0.91875 0 0
0.925 0 0
0.93125 0 0
0.9375 0 0
0.94375 0 0
0.95 0 0
0.95625 0 0
0.9625 0 0
0.96875 0 0
0.975 0 0
0.98125 0 0
0.9875 0 0
0.99375 0 0
1 0 0

CELLS 160 480
2 0 1
2 1 2
2 2 3
2 3 4
2 4 5
2 5 6
2 6 7
2 7 8
2 8 9
2 9 10
2 10 11
2 11 12
2 12 13
2 13 14
2 14 15
2 15 16
2 16 17
2 17 18
2 18 19
2 19 20
2 20 21
2 21 22
2 22 23
2 23 24
2 24 25
2 25 26
2 26 27
2 27 28
2 28 29
2 29 30
2 30 31
2 31 32
2 32 33
2 33 34
2 34 35
2 35 36
2 36 37
2 37 38
2 38 39
2 39 40
2 40 41
2 41 42
2 42 43
2 43 44
2 44 45
2 45 46
2 46 47
2 47 48
2 48 49
2 49 50
2 50 51
2 51 52
2 52 53
2 53 54
2 54 55
2 55 56
2 56 57
2 57 58
2 58 59
2 59 60
2 60 61
2 61 62
2 62 63
2 63 64
2 64 65
2 65 66
2 66 67
2 67 68
2 68 69
2 69 70
2 70 71
2 71 72
2 72 73
2 73 74
2 74 75
2 75 76
2 76 77
2 77 78
2 78 79
2 79 80
2 80 81
2 81 82
2 82 83
2 83 84
2 84 85
2 85 86
2 86 87
2 87 88
2 88 89
2 89 90
2 90 91
2 91 92
2 92 93
2 93 94
2 94 95
2 95 96
2 96 97
2 97 98
2 98 99
2 99 100
2 100 101
2 101 102
2 102 103
2 103 104
2 104 105
2 105 106
2 106 107
2 107 108
2 108 109
2 109 110
2 110 111
2 111 112
2 112 113
2 113 114
2 114 115
2 115 116
2 116 117
2 117 118
2 118 119
2 119 120
2 120 121
2 121 122
2 122 123
2 123 124
2 124 125
2 125 126
2 126 127
2 127 128
2 128 129
2 129 130
2 130 131
2 131 132
2 132 133
2 133 134
2 134 135
2 135 136
2 136 137
2 137 138
2 138 139
2 139 140
2 140 141
2 141 142
2 142 143
2 143 144
2 144 145
2 145 146
2 146 147
2 147 148
2 148 149
2 149 150
2 150 151
2 151 152
2 152 153
2 153 154
2 154 155
2 155 156
2 156 157
2 157 158
2 158 159
2 159 160

CELL_TYPES 160
3 3 3 3 3 3 3 3 3 3 3 3 3 3 3 3 3 3 3 3 3 3 3 3 3 3 3 3 3 3 3 3 3 3 3 3 3 3 3 3 3 3 3 3 3 3 3 3 3 3 3 3 3 3 3 3 3 3 3 3 3 3 3 3 3 3 3 3 3 3 3 3 3 3 3 3 3 3 3 3 3 3 3 3 3 3 3 3 3 3 3 3 3 3 3 3 3 3 3 3 3 3 3 3 3 3 3 3 3 3 3 3 3 3 3 3 3 3 3 3 3 3 3 3 3 3 3 3 3 3 3 3 3 3 3 3 3 3 3 3 3 3 3 3 3 3 3 3 3 3 3 3 3 3 3 3 3 3 3 3 



CELL_DATA 160
SCALARS MaterialID int 1
LOOKUP_TABLE default
1 1 1 1 1 1 1 1 1 1 1 1 1 1 1 1 1 1 1 1 1 1 1 1 1 1 1 1 1 1 1 1 1 1 1 1 1 1 1 1 1 1 1 1 1 1 1 1 1 1 1 1 1 1 1 1 1 1 1 1 1 1 1 1 1 1 1 1 1 1 1 1 1 1 1 1 1 1 1 1 1 1 1 1 1 1 1 1 1 1 1 1 1 1 1 1 1 1 1 1 1 1 1 1 1 1 1 1 1 1 1 1 1 1 1 1 1 1 1 1 1 1 1 1 1 1 1 1 1 1 1 1 1 1 1 1 1 1 1 1 1 1 1 1 1 1 1 1 1 1 1 1 1 1 1 1 1 1 1 1 



SCALARS ManifoldID int 1
LOOKUP_TABLE default
-1 -1 -1 -1 -1 -1 -1 -1 -1 -1 -1 -1 -1 -1 -1 -1 -1 -1 -1 -1 -1 -1 -1 -1 -1 -1 -1 -1 -1 -1 -1 -1 -1 -1 -1 -1 -1 -1 -1 -1 -1 -1 -1 -1 -1 -1 -1 -1 -1 -1 -1 -1 -1 -1 -1 -1 -1 -1 -1 -1 -1 -1 -1 -1 -1 -1 -1 -1 -1 -1 -1 -1 -1 -1 -1 -1 -1 -1 -1 -1 -1 -1 -1 -1 -1 -1 -1 -1 -1 -1 -1 -1 -1 -1 -1 -1 -1 -1 -1 -1 -1 -1 -1 -1 -1 -1 -1 -1 -1 -1 -1 -1 -1 -1 -1 -1 -1 -1 -1 -1 -1 -1 -1 -1 -1 -1 -1 -1 -1 -1 -1 -1 -1 -1 -1 -1 -1 -1 -1 -1 -1 -1 -1 -1 -1 -1 -1 -1 -1 -1 -1 -1 -1 -1 -1 -1 -1 -1 -1 -1 


