# vtk DataFile Version 3.0
Triangulation generated with deal.II
ASCII
DATASET UNSTRUCTURED_GRID
POINTS 321 double
0 0 0
0.003125 0 0
0.00625 0 0
0.009375 0 0
0.0125 0 0
0.015625 0 0
0.01875 0 0
0.021875 0 0
0.025 0 0
0.028125 0 0
0.03125 0 0
0.034375 0 0
0.0375 0 0
0.040625 0 0
0.04375 0 0
0.046875 0 0
0.05 0 0
0.053125 0 0
0.05625 0 0
0.059375 0 0
0.0625 0 0
0.065625 0 0
0.06875 0 0
0.071875 0 0
0.075 0 0
0.078125 0 0
0.08125 0 0
0.084375 0 0
0.0875 0 0
0.090625 0 0
0.09375 0 0
0.096875 0 0
0.1 0 0
0.103125 0 0
0.10625 0 0
0.109375 0 0
0.1125 0 0
0.115625 0 0
0.11875 0 0
0.121875 0 0
0.125 0 0
0.128125 0 0
0.13125 0 0
0.134375 0 0
0.1375 0 0
0.140625 0 0
0.14375 0 0
0.146875 0 0
0.15 0 0
0.153125 0 0
0.15625 0 0
0.159375 0 0
0.1625 0 0
0.165625 0 0
0.16875 0 0
0.171875 0 0
0.175 0 0
0.178125 0 0
0.18125 0 0
0.184375 0 0
0.1875 0 0
0.190625 0 0
0.19375 0 0
0.196875 0 0
0.2 0 0
0.203125 0 0
0.20625 0 0
0.209375 0 0
0.2125 0 0
0.215625 0 0
0.21875 0 0
0.221875 0 0
0.225 0 0
0.228125 0 0
0.23125 0 0
0.234375 0 0
0.2375 0 0
0.240625 0 0
0.24375 0 0
0.246875 0 0
0.25 0 0
0.253125 0 0
0.25625 0 0
0.259375 0 0
0.2625 0 0
0.265625 0 0
0.26875 0 0
0.271875 0 0
0.275 0 0
0.278125 0 0
0.28125 0 0
0.284375 0 0
0.2875 0 0
0.290625 0 0
0.29375 0 0
0.296875 0 0
0.3 0 0
0.303125 0 0
0.30625 0 0
0.309375 0 0
0.3125 0 0
0.315625 0 0
0.31875 0 0
0.321875 0 0
0.325 0 0
0.328125 0 0
0.33125 0 0
0.334375 0 0
0.3375 0 0
0.340625 0 0
0.34375 0 0
0.346875 0 0
0.35 0 0
0.353125 0 0
0.35625 0 0
0.359375 0 0
0.3625 0 0
0.365625 0 0
0.36875 0 0
0.371875 0 0
0.375 0 0
0.378125 0 0
0.38125 0 0
0.384375 0 0
0.3875 0 0
0.390625 0 0
0.39375 0 0
0.396875 0 0
0.4 0 0
0.403125 0 0
0.40625 0 0
0.409375 0 0
0.4125 0 0
0.415625 0 0
0.41875 0 0
0.421875 0 0
0.425 0 0
0.428125 0 0
0.43125 0 0
0.434375 0 0
0.4375 0 0
0.440625 0 0
0.44375 0 0
0.446875 0 0
0.45 0 0
0.453125 0 0
0.45625 0 0
0.459375 0 0
0.4625 0 0
0.465625 0 0
0.46875 0 0
0.471875 0 0
0.475 0 0
0.478125 0 0
0.48125 0 0
0.484375 0 0
0.4875 0 0
0.490625 0 0
0.49375 0 0
0.496875 0 0
0.5 0 0
0.503125 0 0
0.50625 0 0
0.509375 0 0
0.5125 0 0
0.515625 0 0
0.51875 0 0
0.521875 0 0
0.525 0 0
0.528125 0 0
0.53125 0 0
0.534375 0 0
0.5375 0 0
0.540625 0 0
0.54375 0 0
0.546875 0 0
0.55 0 0
0.553125 0 0
0.55625 0 0
0.559375 0 0
0.5625 0 0
0.565625 0 0
0.56875 0 0
0.571875 0 0
0.575 0 0
0.578125 0 0
0.58125 0 0
0.584375 0 0
0.5875 0 0
0.590625 0 0
0.59375 0 0
0.596875 0 0
0.6 0 0
0.603125 0 0
0.60625 0 0
0.609375 0 0
0.6125 0 0
0.615625 0 0
0.61875 0 0
0.621875 0 0
0.625 0 0
0.628125 0 0
0.63125 0 0
0.634375 0 0
0.6375 0 0
0.640625 0 0
0.64375 0 0
0.646875 0 0
0.65 0 0
0.653125 0 0
0.65625 0 0
0.659375 0 0
0.6625 0 0
0.665625 0 0
0.66875 0 0
0.671875 0 0
0.675 0 0
0.678125 0 0
0.68125 0 0
0.684375 0 0
0.6875 0 0
0.690625 0 0
0.69375 0 0
0.696875 0 0
0.7 0 0
0.703125 0 0
0.70625 0 0
0.709375 0 0
0.7125 0 0
0.715625 0 0
0.71875 0 0
0.721875 0 0
0.725 0 0
0.728125 0 0
0.73125 0 0
0.734375 0 0
0.7375 0 0
0.740625 0 0
0.74375 0 0
0.746875 0 0
0.75 0 0
0.753125 0 0
0.75625 0 0
0.759375 0 0
0.7625 0 0
0.765625 0 0
0.76875 0 0
0.771875 0 0
0.775 0 0
0.778125 0 0
0.78125 0 0
0.784375 0 0
0.7875 0 0
0.790625 0 0
0.79375 0 0
0.796875 0 0
0.8 0 0
0.803125 0 0
0.80625 0 0
0.809375 0 0
0.8125 0 0
0.815625 0 0
0.81875 0 0
0.821875 0 0
0.825 0 0
0.828125 0 0
0.83125 0 0
0.834375 0 0
0.8375 0 0
0.840625 0 0
0.84375 0 0
0.846875 0 0
0.85 0 0
0.853125 0 0
0.85625 0 0
0.859375 0 0
0.8625 0 0
0.865625 0 0
0.86875 0 0
0.871875 0 0
0.875 0 0
0.878125 0 0
0.88125 0 0
0.884375 0 0
0.8875 0 0
0.890625 0 0
0.89375 0 0
0.896875 0 0
0.9 0 0
0.903125 0 0
0.90625 0 0
0.909375 0 0
0.9125 0 0
0.915625 0 0
0.91875 0 0
0.921875 0 0
0.925 0 0
0.928125 0 0
0.93125 0 0
0.934375 0 0
0.9375 0 0
0.940625 0 0
0.94375 0 0
0.946875 0 0
0.95 0 0
0.953125 0 0
0.95625 0 0
0.959375 0 0
0.9625 0 0
0.965625 0 0
0.96875 0 0
0.971875 0 0
0.975 0 0
0.978125 0 0
0.98125 0 0
0.984375 0 0
0.9875 0 0
0.990625 0 0
0.99375 0 0
0.996875 0 0
1 0 0

CELLS 320 960
2 0 1
2 1 2
2 2 3
2 3 4
2 4 5
2 5 6
2 6 7
2 7 8
2 8 9
2 9 10
2 10 11
2 11 12
2 12 13
2 13 14
2 14 15
2 15 16
2 16 17
2 17 18
2 18 19
2 19 20
2 20 21
2 21 22
2 22 23
2 23 24
2 24 25
2 25 26
2 26 27
2 27 28
2 28 29
2 29 30
2 30 31
2 31 32
2 32 33
2 33 34
2 34 35
2 35 36
2 36 37
2 37 38
2 38 39
2 39 40
2 40 41
2 41 42
2 42 43
2 43 44
2 44 45
2 45 46
2 46 47
2 47 48
2 48 49
2 49 50
2 50 51
2 51 52
2 52 53
2 53 54
2 54 55
2 55 56
2 56 57
2 57 58
2 58 59
2 59 60
2 60 61
2 61 62
2 62 63
2 63 64
2 64 65
2 65 66
2 66 67
2 67 68
2 68 69
2 69 70
2 70 71
2 71 72
2 72 73
2 73 74
2 74 75
2 75 76
2 76 77
2 77 78
2 78 79
2 79 80
2 80 81
2 81 82
2 82 83
2 83 84
2 84 85
2 85 86
2 86 87
2 87 88
2 88 89
2 89 90
2 90 91
2 91 92
2 92 93
2 93 94
2 94 95
2 95 96
2 96 97
2 97 98
2 98 99
2 99 100
2 100 101
2 101 102
2 102 103
2 103 104
2 104 105
2 105 106
2 106 107
2 107 108
2 108 109
2 109 110
2 110 111
2 111 112
2 112 113
2 113 114
2 114 115
2 115 116
2 116 117
2 117 118
2 118 119
2 119 120
2 120 121
2 121 122
2 122 123
2 123 124
2 124 125
2 125 126
2 126 127
2 127 128
2 128 129
2 129 130
2 130 131
2 131 132
2 132 133
2 133 134
2 134 135
2 135 136
2 136 137
2 137 138
2 138 139
2 139 140
2 140 141
2 141 142
2 142 143
2 143 144
2 144 145
2 145 146
2 146 147
2 147 148
2 148 149
2 149 150
2 150 151
2 151 152
2 152 153
2 153 154
2 154 155
2 155 156
2 156 157
2 157 158
2 158 159
2 159 160
2 160 161
2 161 162
2 162 163
2 163 164
2 164 165
2 165 166
2 166 167
2 167 168
2 168 169
2 169 170
2 170 171
2 171 172
2 172 173
2 173 174
2 174 175
2 175 176
2 176 177
2 177 178
2 178 179
2 179 180
2 180 181
2 181 182
2 182 183
2 183 184
2 184 185
2 185 186
2 186 187
2 187 188
2 188 189
2 189 190
2 190 191
2 191 192
2 192 193
2 193 194
2 194 195
2 195 196
2 196 197
2 197 198
2 198 199
2 199 200
2 200 201
2 201 202
2 202 203
2 203 204
2 204 205
2 205 206
2 206 207
2 207 208
2 208 209
2 209 210
2 210 211
2 211 212
2 212 213
2 213 214
2 214 215
2 215 216
2 216 217
2 217 218
2 218 219
2 219 220
2 220 221
2 221 222
2 222 223
2 223 224
2 224 225
2 225 226
2 226 227
2 227 228
2 228 229
2 229 230
2 230 231
2 231 232
2 232 233
2 233 234
2 234 235
2 235 236
2 236 237
2 237 238
2 238 239
2 239 240
2 240 241
2 241 242
2 242 243
2 243 244
2 244 245
2 245 246
2 246 247
2 247 248
2 248 249
2 249 250
2 250 251
2 251 252
2 252 253
2 253 254
2 254 255
2 255 256
2 256 257
2 257 258
2 258 259
2 259 260
2 260 261
2 261 262
2 262 263
2 263 264
2 264 265
2 265 266
2 266 267
2 267 268
2 268 269
2 269 270
2 270 271
2 271 272
2 272 273
2 273 274
2 274 275
2 275 276
2 276 277
2 277 278
2 278 279
2 279 280
2 280 281
2 281 282
2 282 283
2 283 284
2 284 285
2 285 286
2 286 287
2 287 288
2 288 289
2 289 290
2 290 291
2 291 292
2 292 293
2 293 294
2 294 295
2 295 296
2 296 297
2 297 298
2 298 299
2 299 300
2 300 301
2 301 302
2 302 303
2 303 304
2 304 305
2 305 306
2 306 307
2 307 308
2 308 309
2 309 310
2 310 311
2 311 312
2 312 313
2 313 314
2 314 315
2 315 316
2 316 317
2 317 318
2 318 319
2 319 320

CELL_TYPES 320
3 3 3 3 3 3 3 3 3 3 3 3 3 3 3 3 3 3 3 3 3 3 3 3 3 3 3 3 3 3 3 3 3 3 3 3 3 3 3 3 3 3 3 3 3 3 3 3 3 3 3 3 3 3 3 3 3 3 3 3 3 3 3 3 3 3 3 3 3 3 3 3 3 3 3 3 3 3 3 3 3 3 3 3 3 3 3 3 3 3 3 3 3 3 3 3 3 3 3 3 3 3 3 3 3 3 3 3 3 3 3 3 3 3 3 3 3 3 3 3 3 3 3 3 3 3 3 3 3 3 3 3 3 3 3 3 3 3 3 3 3 3 3 3 3 3 3 3 3 3 3 3 3 3 3 3 3 3 3 3 3 3 3 3 3 3 3 3 3 3 3 3 3 3 3 3 3 3 3 3 3 3 3 3 3 3 3 3 3 3 3 3 3 3 3 3 3 3 3 3 3 3 3 3 3 3 3 3 3 3 3 3 3 3 3 3 3 3 3 3 3 3 3 3 3 3 3 3 3 3 3 3 3 3 3 3 3 3 3 3 3 3 3 3 3 3 3 3 3 3 3 3 3 3 3 3 3 3 3 3 3 3 3 3 3 3 3 3 3 3 3 3 3 3 3 3 3 3 3 3 3 3 3 3 3 3 3 3 3 3 3 3 3 3 3 3 3 3 3 3 3 3 3 3 3 3 3 3 3 3 3 3 3 3 3 3 3 3 3 3 



CELL_DATA 320
SCALARS MaterialID int 1
LOOKUP_TABLE default
1 1 1 1 1 1 1 1 1 1 1 1 1 1 1 1 1 1 1 1 1 1 1 1 1 1 1 1 1 1 1 1 1 1 1 1 1 1 1 1 1 1 1 1 1 1 1 1 1 1 1 1 1 1 1 1 1 1 1 1 1 1 1 1 1 1 1 1 1 1 1 1 1 1 1 1 1 1 1 1 1 1 1 1 1 1 1 1 1 1 1 1 1 1 1 1 1 1 1 1 1 1 1 1 1 1 1 1 1 1 1 1 1 1 1 1 1 1 1 1 1 1 1 1 1 1 1 1 1 1 1 1 1 1 1 1 1 1 1 1 1 1 1 1 1 1 1 1 1 1 1 1 1 1 1 1 1 1 1 1 1 1 1 1 1 1 1 1 1 1 1 1 1 1 1 1 1 1 1 1 1 1 1 1 1 1 1 1 1 1 1 1 1 1 1 1 1 1 1 1 1 1 1 1 1 1 1 1 1 1 1 1 1 1 1 1 1 1 1 1 1 1 1 1 1 1 1 1 1 1 1 1 1 1 1 1 1 1 1 1 1 1 1 1 1 1 1 1 1 1 1 1 1 1 1 1 1 1 1 1 1 1 1 1 1 1 1 1 1 1 1 1 1 1 1 1 1 1 1 1 1 1 1 1 1 1 1 1 1 1 1 1 1 1 1 1 1 1 1 1 1 1 1 1 1 1 1 1 1 1 1 1 1 1 1 1 1 1 1 1 



SCALARS ManifoldID int 1
LOOKUP_TABLE default
-1 -1 -1 -1 -1 -1 -1 -1 -1 -1 -1 -1 -1 -1 -1 -1 -1 -1 -1 -1 -1 -1 -1 -1 -1 -1 -1 -1 -1 -1 -1 -1 -1 -1 -1 -1 -1 -1 -1 -1 -1 -1 -1 -1 -1 -1 -1 -1 -1 -1 -1 -1 -1 -1 -1 -1 -1 -1 -1 -1 -1 -1 -1 -1 -1 -1 -1 -1 -1 -1 -1 -1 -1 -1 -1 -1 -1 -1 -1 -1 -1 -1 -1 -1 -1 -1 -1 -1 -1 -1 -1 -1 -1 -1 -1 -1 -1 -1 -1 -1 -1 -1 -1 -1 -1 -1 -1 -1 -1 -1 -1 -1 -1 -1 -1 -1 -1 -1 -1 -1 -1 -1 -1 -1 -1 -1 -1 -1 -1 -1 -1 -1 -1 -1 -1 -1 -1 -1 -1 -1 -1 -1 -1 -1 -1 -1 -1 -1 -1 -1 -1 -1 -1 -1 -1 -1 -1 -1 -1 -1 -1 -1 -1 -1 -1 -1 -1 -1 -1 -1 -1 -1 -1 -1 -1 -1 -1 -1 -1 -1 -1 -1 -1 -1 -1 -1 -1 -1 -1 -1 -1 -1 -1 -1 -1 -1 -1 -1 -1 -1 -1 -1 -1 -1 -1 -1 -1 -1 -1 -1 -1 -1 -1 -1 -1 -1 -1 -1 -1 -1 -1 -1 -1 -1 -1 -1 -1 -1 -1 -1 -1 -1 -1 -1 -1 -1 -1 -1 -1 -1 -1 -1 -1 -1 -1 -1 -1 -1 -1 -1 -1 -1 -1 -1 -1 -1 -1 -1 -1 -1 -1 -1 -1 -1 -1 -1 -1 -1 -1 -1 -1 -1 -1 -1 -1 -1 -1 -1 -1 -1 -1 -1 -1 -1 -1 -1 -1 -1 -1 -1 -1 -1 -1 -1 -1 -1 -1 -1 -1 -1 -1 -1 -1 -1 -1 -1 -1 -1 -1 -1 -1 -1 -1 -1 -1 -1 -1 -1 -1 -1 


